<?xml version="1.0" encoding="utf-8"?>
<!-- Generator: Adobe Illustrator 27.0.0, SVG Export Plug-In . SVG Version: 6.00 Build 0)  -->
<svg version="1.1" id="Layer_2_00000135650899429464637460000003861963647219245500_"
	 xmlns="http://www.w3.org/2000/svg" xmlns:xlink="http://www.w3.org/1999/xlink" x="0px" y="0px" viewBox="0 0 2347.4 422.1"
	 style="enable-background:new 0 0 2347.4 422.1;" xml:space="preserve">
<style type="text/css">
	.st0{enable-background:new    ;}
</style>
<g id="Layer_2-2">
	<g id="MjPl_2">
		<g id="MP_new">
			<g id="P3">
				<path id="SINGLE" d="M1321.6,66.3l44.5-53.3c6-7.2,16.6-8.1,23.8-2.1l91.3,76.3c7.2,6,8.1,16.6,2.1,23.8l-44.5,53.3
					c-6,7.2-16.6,8.1-23.8,2.1l-91.3-76.3C1316.6,84.1,1315.6,73.5,1321.6,66.3z"/>
				<path id="SINGLE-2" d="M1494.7,106.6L1563,119c9.2,1.7,15.3,10.5,13.6,19.6l-21.2,117.1c-1.7,9.2-10.5,15.3-19.6,13.6
					l-68.4-12.4c-9.2-1.7-15.3-10.5-13.6-19.6l21.2-117.1C1476.7,111,1485.5,104.9,1494.7,106.6z"/>
				<path id="SINGLE-3" d="M1340.8,190.2l64.3-26.3c8.6-3.5,18.5,0.6,22,9.2l45.1,110.1c3.5,8.6-0.6,18.5-9.2,22l-64.3,26.3
					c-8.6,3.5-18.5-0.6-22-9.2l-45.1-110.1C1328,203.6,1332.1,193.7,1340.8,190.2z"/>
			</g>
			<path d="M276,302.9v-119c0-9.3-7.6-16.9-16.9-16.9H230c2.1-1.7,3.8-3.8,4.9-6.5l47.4-109.2c3.7-8.6-0.2-18.5-8.8-22.2L209.9,1.4
				c-8.6-3.7-18.5,0.2-22.2,8.8l-45.8,105.3L96.1,10.2C92.4,1.6,82.4-2.3,73.9,1.4L10.2,29.1C1.6,32.8-2.3,42.8,1.4,51.3l47.4,109.2
				c1.1,2.6,2.9,4.8,5,6.5H24.7c-9.3,0-16.9,7.6-16.9,16.9v119c0,9.3,7.6,16.9,16.9,16.9h69.5c9.3,0,16.9-7.6,16.9-16.9v-119
				c0-9.3-7.6-16.9-16.9-16.9H76.4l58.4-25.4c3-1.3,5.4-3.4,7.1-5.8c1.7,2.5,4.1,4.5,7.1,5.8l58.4,25.4h-17.8
				c-9.3,0-16.9,7.6-16.9,16.9v119c0,9.3,7.6,16.9,16.9,16.9h69.5C268.4,319.8,276,312.2,276,302.9L276,302.9z"/>
		</g>
		<g class="st0">
			<path d="M348.2,323c-10.9,0-20.5-2-28.9-6.1c-8.4-4.1-14.9-9.6-19.7-16.5c-4.8-6.9-7.2-14.6-7.2-23.2c0-14,5.7-25,17.1-33.1
				c11.4-8.1,26.6-13.7,45.7-16.8l33.9-5.3v-2c0-6.2-1-10.8-2.9-13.7c-1.9-2.9-5.8-4.4-11.7-4.4c-4.3,0-7.7,0.8-10.2,2.3
				c-2.5,1.6-4.8,3.8-6.7,6.7c-1.9,2.1-4.5,3.2-7.6,3.2h-41.2c-1.9,0-3.6-0.6-4.8-1.8c-1.3-1.2-1.8-2.7-1.6-4.7
				c0.2-3.5,1.7-7.6,4.4-12.4c2.7-4.8,7-9.4,12.7-14c5.7-4.6,13.2-8.4,22.3-11.4c9.1-3,20.1-4.5,33-4.5c25.9,0,44.8,5.5,56.6,16.6
				c11.9,11.1,17.8,25.8,17.8,44.1v86.4c0,2.1-0.7,3.9-2.2,5.4c-1.5,1.5-3.3,2.2-5.4,2.2h-42.3c-2.1,0-4-0.7-5.5-2.2
				c-1.6-1.5-2.3-3.3-2.3-5.4v-9.3c-4.1,5.8-9.8,10.6-17.1,14.3C367,321.2,358.3,323,348.2,323z M365.1,284.8c7.2,0,13.1-2.3,17.7-7
				c4.6-4.7,6.9-11.9,6.9-21.6v-2l-21,4.1c-7.2,1.4-12.3,3.4-15.2,6c-2.9,2.6-4.4,5.5-4.4,8.6c0,3.7,1.5,6.6,4.5,8.8
				C356.6,283.7,360.4,284.8,365.1,284.8z"/>
		</g>
		<g class="st0">
			<path d="M481.9,320.1c-2.1,0-3.9-0.7-5.4-2.2c-1.5-1.5-2.2-3.3-2.2-5.4V120.5c0-2.1,0.7-3.9,2.2-5.4c1.5-1.5,3.3-2.2,5.4-2.2
				h47.3c2.1,0,3.9,0.7,5.4,2.2c1.5,1.5,2.2,3.3,2.2,5.4v63.9c5.1-5.8,11.4-10.5,19.1-13.9c7.7-3.4,16.4-5.1,26.1-5.1
				c10.3,0,19.9,2.4,28.7,7.3c8.9,4.9,16,12.2,21.5,21.9c5.4,9.7,8.2,22,8.2,36.8v81.1c0,2.1-0.7,3.9-2.2,5.4
				c-1.5,1.5-3.3,2.2-5.4,2.2h-47.6c-2.1,0-3.9-0.7-5.4-2.2c-1.5-1.5-2.2-3.3-2.2-5.4v-79.1c0-15-6.7-22.5-20.1-22.5
				c-6.4,0-11.5,1.9-15.2,5.8c-3.7,3.9-5.5,9.4-5.5,16.6v79.1c0,2.1-0.7,3.9-2.2,5.4c-1.5,1.5-3.3,2.2-5.4,2.2H481.9z"/>
		</g>
		<g class="st0">
			<path d="M637.4,387.9c-2.1,0-3.9-0.7-5.4-2.2c-1.5-1.5-2.2-3.3-2.2-5.4v-29.5c0-2.1,0.7-3.9,2.2-5.4c1.5-1.5,3.3-2.2,5.4-2.2h14
				c5.8,0,9.8-1.7,12-5c2.1-3.3,3.2-7.6,3.2-12.8V188.3c0-2.1,0.7-3.9,2.2-5.4c1.5-1.5,3.3-2.2,5.4-2.2h45.5c2.1,0,3.9,0.7,5.4,2.2
				c1.5,1.5,2.2,3.3,2.2,5.4v138.6c0,20.2-6.3,35.5-19,45.7c-12.7,10.2-29.2,15.3-49.6,15.3H637.4z M674.7,161.7
				c-2.1,0-3.9-0.7-5.4-2.2c-1.5-1.5-2.2-3.3-2.2-5.4v-30.6c0-2.1,0.7-4,2.2-5.5c1.5-1.6,3.3-2.3,5.4-2.3h44.4
				c2.1,0,3.9,0.8,5.4,2.3c1.5,1.6,2.2,3.4,2.2,5.5v30.6c0,2.1-0.7,3.9-2.2,5.4c-1.5,1.5-3.3,2.2-5.4,2.2H674.7z"/>
		</g>
		<g class="st0">
			<path d="M830.2,323c-25.7,0-45.2-5.6-58.7-16.9c-13.4-11.3-20.8-27.4-22.2-48.5c-0.6-8.9-0.6-17.9,0-26.9
				c1.4-21,9-37.2,23.1-48.5c14-11.3,33.3-16.9,57.8-16.9s43.8,5.6,57.9,16.9c14.1,11.3,21.7,27.4,22.9,48.5c0.6,9,0.6,17.9,0,26.9
				c-1.2,21-8.5,37.2-21.9,48.5C875.8,317.4,856.1,323,830.2,323z M830.2,281.9c7,0,11.9-2.1,14.6-6.3c2.7-4.2,4.4-10.7,5-19.4
				c0.2-2.9,0.3-6.9,0.3-12c0-5.1-0.1-9-0.3-12c-0.6-8.4-2.2-14.7-5-19.1c-2.7-4.4-7.6-6.6-14.6-6.6s-11.9,2.2-14.6,6.6
				c-2.7,4.4-4.4,10.8-5,19.1c0,2.9,0,6.9,0,12c0,5.1,0,9,0,12c0.6,8.8,2.2,15.2,5,19.4C818.4,279.8,823.2,281.9,830.2,281.9z"/>
		</g>
		<g class="st0">
			<path d="M939.5,320.1c-2.1,0-3.9-0.7-5.4-2.2c-1.5-1.5-2.2-3.3-2.2-5.4V175.9c0-2.1,0.7-3.9,2.2-5.4c1.5-1.5,3.3-2.2,5.4-2.2
				h42.3c2.1,0,3.9,0.7,5.4,2.2c1.5,1.5,2.2,3.3,2.2,5.4v10.5c4.9-6,11.5-11,19.8-15c8.4-4,18-6,28.9-6c10.3,0,19.8,2.4,28.5,7.3
				c8.7,4.9,15.6,12.2,20.9,21.9c5.3,9.7,7.9,22,7.9,36.8v81.1c0,2.1-0.8,3.9-2.3,5.4c-1.6,1.5-3.4,2.2-5.5,2.2h-46.1
				c-2.1,0-3.9-0.7-5.4-2.2c-1.5-1.5-2.2-3.3-2.2-5.4v-79.1c0-15-6.7-22.5-20.1-22.5c-6.4,0-11.5,1.9-15.2,5.8
				c-3.7,3.9-5.5,9.4-5.5,16.6v79.1c0,2.1-0.7,3.9-2.2,5.4c-1.5,1.5-3.3,2.2-5.4,2.2H939.5z"/>
		</g>
		<g class="st0">
			<path d="M1198.5,384.3c-15.8,0-28.8-2-39.3-6c-10.4-4-18.7-8.9-24.8-14.6c-6.1-5.7-10.6-11.4-13.3-16.9c-2.7-5.5-4.2-9.9-4.4-13
				c-0.2-2.1,0.5-3.9,2-5.4c1.6-1.5,3.4-2.2,5.5-2.2h47c3.5,0,6.1,1.9,7.9,5.8c1.4,2.9,3.3,5.4,5.7,7.6c2.4,2.1,6.5,3.2,12.1,3.2
				c6.4,0,11.3-1.8,14.6-5.3c3.3-3.5,5-9.3,5-17.5v-19.6c-4.7,4.5-10.4,8-17.1,10.7s-14.6,3.9-23.8,3.9c-19.3,0-34.1-5.4-44.5-16.2
				c-10.4-10.8-16.2-27.7-17.4-50.6c-0.4-5.1-0.4-10.1,0-15.2c1-21.8,6.7-38.5,17.2-50.2s25.4-17.5,44.7-17.5
				c9.9,0,18.6,1.9,26.1,5.7c7.5,3.8,13.6,8.7,18.2,14.7v-9.9c0-2.1,0.7-3.9,2.2-5.4c1.5-1.5,3.3-2.2,5.4-2.2h42.3
				c2.1,0,3.9,0.7,5.4,2.2c1.5,1.5,2.2,3.3,2.2,5.4l0.3,139.5c0,15.8-3.3,28.7-9.9,38.8c-6.6,10.1-15.9,17.7-27.9,22.6
				S1214.3,384.3,1198.5,384.3z M1195.9,270.8c7,0,12.1-2.1,15.2-6.3c3.1-4.2,5-9.3,5.5-15.3c0-1.8,0-4.5,0-8.3c0-3.8,0-6.6,0-8.3
				c-0.6-6-2.4-11.1-5.5-15.3c-3.1-4.2-8.2-6.3-15.2-6.3c-7.6,0-12.8,2.2-15.8,6.7c-2.9,4.5-4.6,10.2-5,17.2c-0.4,4.1-0.4,8.1,0,12
				c0.4,7,2,12.7,5,17.2C1183.1,268.5,1188.3,270.8,1195.9,270.8z"/>
		</g>
		<g class="st0">
			<path d="M1631.3,323c-10.9,0-20.5-2-28.9-6.1c-8.4-4.1-14.9-9.6-19.7-16.5c-4.8-6.9-7.2-14.6-7.2-23.2c0-14,5.7-25,17.1-33.1
				c11.4-8.1,26.6-13.7,45.7-16.8l33.9-5.3v-2c0-6.2-1-10.8-2.9-13.7c-1.9-2.9-5.8-4.4-11.7-4.4c-4.3,0-7.7,0.8-10.2,2.3
				c-2.5,1.6-4.8,3.8-6.7,6.7c-1.9,2.1-4.5,3.2-7.6,3.2h-41.2c-1.9,0-3.6-0.6-4.8-1.8c-1.3-1.2-1.8-2.7-1.6-4.7
				c0.2-3.5,1.7-7.6,4.4-12.4c2.7-4.8,7-9.4,12.7-14c5.7-4.6,13.2-8.4,22.3-11.4c9.1-3,20.1-4.5,33-4.5c25.9,0,44.8,5.5,56.6,16.6
				c11.9,11.1,17.8,25.8,17.8,44.1v86.4c0,2.1-0.7,3.9-2.2,5.4c-1.5,1.5-3.3,2.2-5.4,2.2h-42.3c-2.1,0-4-0.7-5.5-2.2
				c-1.6-1.5-2.3-3.3-2.3-5.4v-9.3c-4.1,5.8-9.8,10.6-17.1,14.3C1650.1,321.2,1641.4,323,1631.3,323z M1648.2,284.8
				c7.2,0,13.1-2.3,17.7-7c4.6-4.7,6.9-11.9,6.9-21.6v-2l-21,4.1c-7.2,1.4-12.3,3.4-15.2,6c-2.9,2.6-4.4,5.5-4.4,8.6
				c0,3.7,1.5,6.6,4.5,8.8C1639.7,283.7,1643.5,284.8,1648.2,284.8z"/>
		</g>
		<g class="st0">
			<path d="M1765,320.1c-2.1,0-3.9-0.7-5.4-2.2c-1.5-1.5-2.2-3.3-2.2-5.4V120.5c0-2.1,0.7-3.9,2.2-5.4c1.5-1.5,3.3-2.2,5.4-2.2h43.5
				c2.1,0,3.9,0.7,5.4,2.2c1.5,1.5,2.2,3.3,2.2,5.4v192.1c0,2.1-0.7,3.9-2.2,5.4c-1.5,1.5-3.3,2.2-5.4,2.2H1765z"/>
		</g>
		<g class="st0">
			<path d="M1889.5,323c-10.9,0-20.5-2-28.9-6.1c-8.4-4.1-14.9-9.6-19.7-16.5c-4.8-6.9-7.2-14.6-7.2-23.2c0-14,5.7-25,17.1-33.1
				c11.4-8.1,26.6-13.7,45.7-16.8l33.9-5.3v-2c0-6.2-1-10.8-2.9-13.7c-1.9-2.9-5.8-4.4-11.7-4.4c-4.3,0-7.7,0.8-10.2,2.3
				c-2.5,1.6-4.8,3.8-6.7,6.7c-1.9,2.1-4.5,3.2-7.6,3.2h-41.2c-1.9,0-3.6-0.6-4.8-1.8c-1.3-1.2-1.8-2.7-1.6-4.7
				c0.2-3.5,1.7-7.6,4.4-12.4c2.7-4.8,7-9.4,12.7-14c5.7-4.6,13.2-8.4,22.3-11.4c9.1-3,20.1-4.5,33-4.5c25.9,0,44.8,5.5,56.6,16.6
				c11.9,11.1,17.8,25.8,17.8,44.1v86.4c0,2.1-0.7,3.9-2.2,5.4c-1.5,1.5-3.3,2.2-5.4,2.2h-42.3c-2.1,0-4-0.7-5.5-2.2
				c-1.6-1.5-2.3-3.3-2.3-5.4v-9.3c-4.1,5.8-9.8,10.6-17.1,14.3S1899.6,323,1889.5,323z M1906.4,284.8c7.2,0,13.1-2.3,17.7-7
				c4.6-4.7,6.9-11.9,6.9-21.6v-2l-21,4.1c-7.2,1.4-12.3,3.4-15.2,6c-2.9,2.6-4.4,5.5-4.4,8.6c0,3.7,1.5,6.6,4.5,8.8
				C1897.9,283.7,1901.8,284.8,1906.4,284.8z"/>
		</g>
		<g class="st0">
			<path d="M2087.7,323c-14.6,0-27.7-2.6-39.3-7.7c-11.6-5.2-20.8-12.7-27.7-22.8c-6.9-10-10.8-22.1-11.5-36.3
				c-0.2-3.1-0.3-7-0.3-11.7s0.1-8.7,0.3-12c0.6-14.4,4.3-26.6,11.2-36.5c6.9-9.9,16.2-17.5,27.9-22.8c11.7-5.3,24.8-7.9,39.4-7.9
				c14.4,0,26.7,2,36.9,6.1c10.2,4.1,18.5,9.1,24.8,15c6.3,5.9,11,12,14.2,18.1c3.1,6.1,4.8,11.2,5,15.3c0.2,2.1-0.5,3.9-2,5.4
				c-1.6,1.5-3.4,2.2-5.5,2.2h-47c-2.1,0-3.8-0.5-5.1-1.5c-1.3-1-2.3-2.4-3.1-4.4c-1.9-4.3-4.2-7.4-6.7-9.5c-2.5-2-5.9-3.1-10.2-3.1
				c-11.7,0-17.7,8.3-18.1,24.8c-0.4,8.2-0.4,15.1,0,20.7c0.2,8.6,1.7,14.8,4.5,18.7c2.8,3.9,7.3,5.8,13.6,5.8c4.9,0,8.5-1,10.8-3.1
				c2.3-2,4.4-5.2,6.1-9.5c1.6-4.1,4.3-6.1,8.2-6.1h47c2.1,0,4,0.8,5.5,2.3c1.6,1.6,2.2,3.4,2,5.5c-0.2,3.5-1.7,8.3-4.5,14.3
				c-2.8,6-7.3,12.1-13.6,18.2c-6.2,6.1-14.5,11.3-24.8,15.6C2115.3,320.9,2102.7,323,2087.7,323z"/>
		</g>
		<g class="st0">
			<path d="M2261,323c-24.3,0-43.7-6.2-58.1-18.7c-14.4-12.5-21.7-31.7-21.9-57.8c0-1.9,0-3.9,0-5.8c0.6-24.1,8-42.7,22.3-55.7
				c14.3-13,33.4-19.6,57.4-19.6c17.9,0,32.7,3.5,44.5,10.5c11.8,7,20.6,16.5,26.4,28.5c5.8,12,8.8,25.2,8.8,39.5v8.2
				c0,2.1-0.8,3.9-2.3,5.4c-1.6,1.5-3.4,2.2-5.5,2.2h-89.9v1.8c0,7.2,1.5,13,4.4,17.4c2.9,4.4,7.4,6.6,13.4,6.6
				c3.7,0,6.6-0.9,8.8-2.6c2.1-1.8,4.1-3.5,5.8-5.3c1.8-1.8,3.2-2.9,4.2-3.4c1.1-0.5,2.8-0.7,5.1-0.7h45.8c1.8,0,3.3,0.6,4.5,1.8
				c1.3,1.2,1.8,2.6,1.6,4.4c-0.2,3.7-1.9,8-5,12.8c-3.1,4.9-7.8,9.6-14,14.3c-6.2,4.7-14,8.6-23.3,11.7S2273.6,323,2261,323z
				 M2242.6,227h36.2v-0.6c0-16.3-6-24.5-18.1-24.5c-12.1,0-18.1,8.2-18.1,24.5V227z"/>
		</g>
	</g>
</g>
</svg>
