<?xml version="1.0" encoding="UTF-8"?>
<svg id="Layer_2" data-name="Layer 2" xmlns="http://www.w3.org/2000/svg" viewBox="0 0 564.54 333.5">
  <g id="Layer_2-2" data-name="Layer 2">
    <g id="MP_2">
      <path d="M275.97,302.86v-119.02c0-9.33-7.57-16.9-16.9-16.9h-29.09c2.09-1.67,3.81-3.84,4.95-6.46l47.43-109.16c3.72-8.56-.21-18.52-8.77-22.23L209.89,1.4c-8.56-3.72-18.52,.21-22.23,8.77l-45.77,105.35L96.11,10.17c-3.72-8.56-13.67-12.49-22.23-8.77L10.17,29.08C1.61,32.8-2.32,42.76,1.4,51.32l47.43,109.16c1.14,2.62,2.86,4.8,4.95,6.46H24.69c-9.33,0-16.9,7.57-16.9,16.9v119.02c0,9.33,7.57,16.9,16.9,16.9H94.15c9.33,0,16.9-7.57,16.9-16.9v-119.02c0-9.33-7.57-16.9-16.9-16.9h-17.78l58.4-25.38c2.98-1.29,5.38-3.36,7.11-5.84,1.73,2.48,4.13,4.54,7.11,5.84l58.4,25.38h-17.78c-9.33,0-16.9,7.57-16.9,16.9v119.02c0,9.33,7.57,16.9,16.9,16.9h69.46c9.33,0,16.9-7.57,16.9-16.9Z"/>
    </g>
    <g id="P3">
      <rect id="SINGLE" x="338.58" y="12.9" width="103.26" height="152.82" rx="16.9" ry="16.9" transform="translate(71.5 331.52) rotate(-50.13)"/>
      <rect id="SINGLE-2" data-name="SINGLE" x="451.25" y="112.05" width="103.26" height="152.82" rx="16.9" ry="16.9" transform="translate(41.54 -86.44) rotate(10.25)"/>
      <rect id="SINGLE-3" data-name="SINGLE" x="337.86" y="171.95" width="103.26" height="152.82" rx="16.9" ry="16.9" transform="translate(-65.07 166.12) rotate(-22.27)"/>
    </g>
  </g>
</svg>