<?xml version="1.0" encoding="UTF-8"?>
<svg id="Layer_2" data-name="Layer 2" xmlns="http://www.w3.org/2000/svg" viewBox="0 0 673 424">
  <g id="Layer_2-2" data-name="Layer 2">
    <g id="MONOGR_2_merged">
      <path d="M472.4,216.35c.54,.85,1.03,1.75,1.43,2.72l26.64,65.07c.04-.32,.07-.64,.12-.96l20.93-115.78-35.83,42.89c-3.41,4.09-8.35,6.15-13.29,6.05Z"/>
      <path d="M582.4,0H90.6C40.56,0,0,40.56,0,90.6v242.8c0,50.04,40.56,90.6,90.6,90.6h491.8c50.04,0,90.6-40.56,90.6-90.6V90.6c0-50.04-40.56-90.6-90.6-90.6Zm-240.93,96.66l-47.43,109.16c-1.14,2.62-2.86,4.8-4.95,6.46h29.09c9.33,0,16.9,7.57,16.9,16.9v119.02c0,9.33-7.57,16.9-16.9,16.9h-69.46c-9.33,0-16.9-7.57-16.9-16.9v-119.02c0-9.33,7.57-16.9,16.9-16.9h17.78l-58.4-25.38c-2.98-1.29-5.38-3.36-7.11-5.84-1.73,2.48-4.13,4.54-7.11,5.84l-58.4,25.38h17.78c9.33,0,16.9,7.57,16.9,16.9v119.02c0,9.33-7.57,16.9-16.9,16.9H83.81c-9.33,0-16.9-7.57-16.9-16.9v-119.02c0-9.33,7.57-16.9,16.9-16.9h29.09c-2.09-1.67-3.81-3.84-4.95-6.46L60.52,96.66c-3.72-8.56,.21-18.52,8.77-22.23l63.7-27.68c8.56-3.72,18.52,.21,22.23,8.77l45.77,105.35,45.77-105.35c3.72-8.56,13.67-12.49,22.23-8.77l63.7,27.68c8.56,3.72,12.49,13.67,8.77,22.23Zm281.91,87.76l-21.17,117.12c-1.66,9.18-10.45,15.28-19.64,13.62l-68.35-12.35c-2.84-.51-5.37-1.71-7.48-3.38l12.19,29.78c3.54,8.64-.6,18.51-9.24,22.04l-64.28,26.32c-8.64,3.54-18.51-.6-22.04-9.24l-45.1-110.14c-3.54-8.64,.6-18.51,9.24-22.04l64.28-26.32c1.81-.74,3.68-1.13,5.53-1.22l-86.77-72.48c-7.16-5.98-8.12-16.64-2.14-23.8l44.53-53.3c5.98-7.16,16.64-8.12,23.8-2.14l91.34,76.3c5.99,5,7.62,13.26,4.51,20.02,2.73-1,5.74-1.33,8.81-.77l68.35,12.35c9.18,1.66,15.28,10.45,13.62,19.64Z"/>
    </g>
  </g>
</svg>